<svg width="1200" height="1200" viewBox="0 0 1200 1200" fill="none" xmlns="http://www.w3.org/2000/svg">
<rect width="1200" height="1200" rx="120" fill="white"/>
<path d="M441.303 538.49C442.812 542.305 444.429 546.069 446.058 549.835C447.903 554.113 449.722 558.398 451.427 562.735C453.293 567.47 455.293 572.143 457.309 576.817C458.724 580.102 460.129 583.391 461.506 586.693C461.717 587.2 461.717 587.2 461.933 587.717C462.501 589.082 463.07 590.447 463.638 591.811C466.007 597.492 468.475 603.124 471.017 608.73C471.265 609.281 471.514 609.832 471.77 610.4C471.99 610.883 472.21 611.367 472.437 611.865C472.906 613.025 472.906 613.025 472.906 614.073H400.613C401.331 612.278 402.002 610.757 402.936 609.1C403.186 608.651 403.437 608.202 403.695 607.739C403.964 607.257 404.233 606.776 404.509 606.281C407.033 601.713 409.352 597.083 411.571 592.361C413.42 588.441 415.393 584.599 417.421 580.768C419.568 576.71 421.626 572.612 423.663 568.497C426.459 562.856 429.288 557.24 432.241 551.68C433.875 548.596 435.448 545.484 436.97 542.343C437.808 540.633 438.623 539.012 439.903 537.59H440.95C441.067 537.887 441.183 538.184 441.303 538.49Z" fill="#040304"/>
<path fill-rule="evenodd" clip-rule="evenodd" d="M491.241 133.695C492.191 133.804 492.191 133.804 493.336 134.219C494.131 135.273 494.131 135.273 494.887 136.675C495.174 137.196 495.46 137.718 495.755 138.256C496.059 138.826 496.363 139.395 496.676 139.982C497.334 141.186 497.992 142.391 498.65 143.595C498.989 144.221 499.328 144.846 499.667 145.471C501.205 148.307 502.789 151.117 504.37 153.929C504.982 155.023 505.595 156.116 506.207 157.21C513.827 170.796 521.49 184.369 529.549 197.702C534.309 205.58 538.884 213.574 543.373 221.609C545.55 225.496 547.792 229.346 550.022 233.202C552.202 236.974 554.358 240.759 556.494 244.557C559.103 249.193 561.77 253.794 564.46 258.384C566.831 262.437 569.147 266.518 571.447 270.611C573.477 274.215 575.552 277.79 577.644 281.358C580.505 286.236 583.288 291.153 586.041 296.092C587.833 299.305 589.644 302.505 591.494 305.684C593.844 309.725 596.179 313.774 598.501 317.831C598.677 318.14 598.854 318.449 599.036 318.766C601.039 322.268 603.025 325.779 604.977 329.309C605.152 329.625 605.327 329.942 605.507 330.267C606.338 331.77 607.166 333.275 607.99 334.781L608.898 336.43C609.283 337.134 609.283 337.134 609.676 337.851C610.173 338.703 610.173 338.703 610.68 339.571C610.91 340.053 611.139 340.534 611.376 341.029C612.946 344.091 612.946 344.091 615.761 345.839C617.513 346.01 619.182 345.996 620.941 345.919C621.587 345.915 622.233 345.912 622.899 345.908C624.287 345.898 625.67 345.878 627.056 345.842C630.314 345.76 633.573 345.769 636.832 345.776C637.559 345.777 638.286 345.778 639.013 345.777C645.587 345.775 652.031 346.21 658.548 347.069C659.184 347.149 659.184 347.149 659.832 347.231C665.25 347.922 670.389 349.076 675.639 350.572C676.564 350.811 677.49 351.046 678.418 351.276L679.637 351.585C680.432 351.786 681.227 351.984 682.023 352.179C684.945 352.927 687.576 354.019 690.307 355.287C691.03 355.596 691.754 355.903 692.48 356.206C702.895 360.63 712.795 366.35 721.094 374.107C722.163 375.102 723.265 376.031 724.39 376.962C726.989 379.238 729.069 381.891 731.168 384.623L732.428 386.238C740.628 397.031 745.893 409.712 747.706 423.117C747.794 424.4 747.794 424.4 748.455 424.96C748.581 426.337 748.673 427.701 748.741 429.082C748.774 429.714 748.774 429.714 748.807 430.36C749.013 434.621 749.094 438.88 749.105 443.146C749.11 444.412 749.126 445.678 749.142 446.944C749.19 453.996 748.23 460.586 746.097 467.327L745.78 468.367C745.566 469.069 745.349 469.77 745.129 470.47C744.887 471.259 744.658 472.052 744.438 472.848C743.565 475.954 742.416 478.728 740.892 481.57C740.551 482.208 740.551 482.208 740.204 482.859C736.328 489.952 731.568 496.196 725.929 501.967L724.859 503.117C719.563 508.687 712.729 513.109 705.822 516.443C704.393 517.019 704.393 517.019 703.927 518.207C704.39 518.325 704.391 518.325 704.864 518.446C708.54 519.457 711.769 520.965 715.124 522.758C715.655 523.039 716.187 523.321 716.734 523.61C720.49 525.623 724.068 527.722 727.501 530.256L729.111 531.418C741.156 540.278 749.893 551.065 756.804 564.241C757.095 564.795 757.387 565.349 757.687 565.92C761.552 573.441 761.551 573.441 761.551 577.403H763.123L763.164 576.455C763.646 569.084 765.742 562.177 768.485 555.361C768.871 554.39 769.237 553.411 769.602 552.432C776.141 535.197 787.222 519.763 800.12 506.748C800.526 506.336 800.933 505.925 801.351 505.502C804.167 502.702 807.142 500.217 810.27 497.776C810.905 497.258 811.538 496.737 812.169 496.213C830.581 481.055 852.843 471.179 876.3 467.057C877.258 466.881 878.211 466.68 879.164 466.478C917.798 458.417 959.132 466.162 993.096 485.728L993.481 484.353C998.245 471.648 1013.77 462.517 1025.38 457.047C1035.54 452.646 1046.13 450.333 1057.01 448.534L1058.91 448.208C1068.08 446.759 1077.33 446.339 1086.61 446.34C1086.98 446.34 1087.36 446.339 1087.74 446.339C1094.1 446.34 1094.1 446.34 1094.72 446.962C1094.78 447.884 1094.79 448.807 1094.79 449.73C1094.79 450.33 1094.79 450.93 1094.79 451.549C1094.79 452.213 1094.79 452.877 1094.78 453.562C1094.78 454.264 1094.78 454.966 1094.78 455.668C1094.78 457.579 1094.78 459.49 1094.78 461.402C1094.77 463.397 1094.77 465.393 1094.77 467.388C1094.77 471.169 1094.77 474.95 1094.76 478.731C1094.76 483.035 1094.75 487.338 1094.75 491.642C1094.75 500.497 1094.74 509.352 1094.72 518.207C1086.65 518.219 1078.58 518.228 1070.5 518.234C1066.75 518.237 1063.01 518.24 1059.26 518.246C1055.99 518.252 1052.72 518.255 1049.45 518.256C1047.72 518.257 1045.99 518.259 1044.26 518.262C1042.33 518.266 1040.4 518.267 1038.47 518.266C1037.89 518.268 1037.32 518.27 1036.73 518.272C1034.18 518.268 1031.75 518.227 1029.24 517.683L1030.29 520.302H1031.34C1032.24 521.319 1033.07 522.337 1033.89 523.413C1034.27 523.904 1034.27 523.904 1034.66 524.406C1049.2 543.382 1059.04 565.425 1061.2 589.452L1061.37 591.277C1062.21 601.791 1062.36 612.514 1060.36 622.894C1060.16 623.97 1060 625.044 1059.84 626.128C1058.21 637.263 1054.56 648.257 1050.2 658.601L1049.71 659.763C1045.72 669.044 1040.36 677.569 1034.12 685.494C1033.52 686.26 1032.92 687.033 1032.33 687.808C1029.43 691.545 1026.22 694.994 1022.96 698.414C1022.64 698.748 1022.32 699.082 1022 699.426C1016.94 704.738 1011.65 709.363 1005.67 713.606C1005.31 713.865 1004.95 714.124 1004.58 714.391C995.07 721.177 984.465 727.046 973.517 731.155L970.047 732.465C969.308 732.761 969.307 732.762 968.553 733.064C964.554 734.652 960.565 735.904 956.394 736.95C955.777 737.106 955.161 737.263 954.525 737.423C940.191 741.007 926.033 742.731 911.244 742.647C910.641 742.646 910.038 742.644 909.417 742.643C899.948 742.606 890.827 742.145 881.515 740.323C880.879 740.202 880.243 740.082 879.588 739.957C866.338 737.405 853.79 733.426 841.552 727.715C840.007 727.184 839.5 727.082 838.035 727.75C832.104 731.823 826.744 737.085 824.664 744.164C823.412 751.174 824.743 756.64 828.474 762.685C832.038 767.684 836.374 770.883 841.702 773.85L843.271 774.76C852.311 779.67 862.66 782.325 872.658 784.51C874.366 784.892 876.065 785.3 877.766 785.712C888.062 788.193 898.397 790.227 908.832 792.039C913.609 792.869 918.366 793.772 923.117 794.739C932.735 796.695 942.371 798.593 952.041 800.283C957.088 801.168 962.091 802.272 967.1 803.349C967.592 803.455 968.084 803.561 968.591 803.67C978.634 805.833 988.552 808.009 998.318 811.225C999.733 811.68 1001.16 812.078 1002.59 812.484C1008.29 814.231 1013.79 816.62 1019.29 818.901C1019.73 819.085 1020.18 819.269 1020.64 819.459C1036.08 825.913 1050.72 835.008 1062.77 846.666C1063.03 846.911 1063.29 847.157 1063.55 847.41C1067.75 851.387 1071.38 855.647 1074.82 860.286L1075.83 861.639C1086.42 876.321 1091.86 892.418 1095.25 910.053C1095.41 910.773 1095.41 910.773 1095.57 911.508C1096.51 916.234 1096.44 920.954 1096.4 925.753C1096.39 927.199 1096.39 928.644 1096.39 930.09C1096.38 938.473 1096.01 946.53 1094.33 954.777C1094.26 955.13 1094.19 955.482 1094.12 955.846C1092.03 966.262 1088.94 975.702 1084.77 985.488C1084.5 986.136 1084.5 986.136 1084.22 986.798C1081.68 992.7 1078.49 998.037 1074.82 1003.3C1074.57 1003.66 1074.32 1004.01 1074.07 1004.38C1070.2 1009.85 1065.87 1014.75 1061.2 1019.54C1060.84 1019.91 1060.49 1020.28 1060.12 1020.66C1048.94 1032.25 1036.03 1041.25 1021.35 1047.93C1019.53 1048.75 1017.76 1049.65 1015.98 1050.58C1013.46 1051.85 1010.93 1052.79 1008.23 1053.61C1006.68 1054.1 1006.68 1054.1 1005.12 1054.83C993.58 1059.87 980.23 1061.94 967.853 1063.9C966.856 1064.06 966.856 1064.06 965.838 1064.22C963.751 1064.54 961.663 1064.84 959.57 1065.11C959.19 1065.16 958.811 1065.21 958.42 1065.27C951.112 1066.2 943.848 1066.32 936.488 1066.3C934.6 1066.29 932.712 1066.3 930.824 1066.31C923.183 1066.31 915.636 1065.96 908.028 1065.24C906.714 1065.12 905.398 1065.01 904.082 1064.9C873.296 1062.36 841.821 1052.75 814.717 1038.05C813.359 1037.32 811.996 1036.6 810.632 1035.88C804.111 1032.41 797.874 1028.6 791.681 1024.58C790.091 1023.55 788.484 1022.56 786.873 1021.57C783.763 1019.65 780.765 1017.66 777.834 1015.48C775.734 1013.95 773.588 1012.49 771.439 1011.03C764.904 1006.57 758.44 1002.05 752.132 997.276C745.475 992.259 738.581 987.557 731.691 982.869C731.377 982.654 731.063 982.44 730.74 982.219C701.771 962.488 668.116 946.594 632.12 952.902C631.313 953.063 630.507 953.229 629.703 953.402C629.041 953.541 629.041 953.541 628.366 953.683C627.009 953.973 625.654 954.275 624.301 954.58C623.675 954.718 623.675 954.718 623.037 954.859C613.523 956.993 603.261 960.71 595.194 966.302C593.917 967.153 593.917 967.153 592.345 967.153C593.007 965.43 593.741 963.808 594.627 962.189C594.864 961.754 595.102 961.32 595.347 960.872C600.824 950.973 607.033 941.75 614.347 933.102L615.585 931.572C630.288 913.519 649.733 899.987 672.103 893.355C672.585 893.211 673.067 893.067 673.564 892.919C681.66 890.636 689.393 889.873 697.772 889.949C698.48 889.953 698.48 889.953 699.204 889.956C706.134 889.995 712.843 890.288 719.643 891.718C720.599 891.904 721.555 892.09 722.512 892.276C727.962 893.373 733.338 894.727 738.698 896.203L740.329 896.649C743.532 897.555 746.493 898.686 749.503 900.099C750.177 900.39 750.852 900.678 751.528 900.963C762.52 905.667 773.098 911.252 783.029 917.91C783.485 918.214 783.941 918.517 784.41 918.829C790.841 923.12 797.111 927.6 803.312 932.217C806.443 934.536 809.615 936.8 812.778 939.077C813.921 939.901 815.061 940.729 816.2 941.558C824.552 947.63 832.926 953.707 841.749 959.082C843.192 959.962 844.613 960.871 846.025 961.8C858.044 969.663 871.504 977.028 885.405 980.917C886.61 981.257 887.75 981.656 888.914 982.116C892.667 983.567 896.593 984.474 900.541 985.212C901.753 985.45 902.952 985.716 904.155 985.991C906.614 986.541 909.082 986.966 911.571 987.354L912.799 987.554C919.253 988.571 925.618 988.729 932.14 988.728C933.655 988.73 935.17 988.739 936.685 988.749C945.448 988.776 953.751 988.115 962.222 985.765C963.239 985.488 964.26 985.23 965.285 984.979C978.809 981.58 993.026 974.175 1000.43 961.914C1005.27 953.128 1008.6 944.75 1008.48 934.576C1008.48 933.909 1008.48 933.243 1008.47 932.556C1008.35 925.255 1007.69 918.64 1004.1 912.148L1003.41 910.855C993.478 893.117 972.824 885.38 954.315 880.126C947.405 878.234 940.408 876.835 933.377 875.478C929.633 874.755 925.962 873.89 922.275 872.91C920.202 872.405 918.117 872.046 916.014 871.69C909.345 870.551 902.742 869.073 896.129 867.651C894.379 867.275 892.629 866.901 890.879 866.527C886.883 865.673 882.889 864.814 878.895 863.953C878.327 863.831 877.759 863.708 877.174 863.582C870.458 862.134 863.751 860.654 857.057 859.107C856.631 859.009 856.205 858.91 855.766 858.809C849.243 857.3 842.732 855.742 836.234 854.131C835.664 853.991 835.663 853.99 835.082 853.847C828.274 852.17 821.512 850.296 814.985 847.713C814.54 847.545 814.096 847.378 813.638 847.204C803.104 843.218 792.686 838.688 783.553 831.998L782.452 831.21C779.403 828.98 776.501 826.558 773.6 824.14L772.301 823.059L771.144 822.077L770.123 821.212C769.409 820.473 769.409 820.473 769.409 819.425H768.361C766.683 817.596 765.187 815.609 763.647 813.663L762.669 812.488C759.908 809.117 757.89 805.417 755.789 801.614C755.612 801.318 755.436 801.023 755.254 800.718C753.93 798.496 752.966 796.265 752.122 793.822C751.989 793.441 751.855 793.06 751.718 792.668C750.323 788.562 749.349 784.375 748.455 780.136C748.363 779.738 748.271 779.34 748.176 778.93C746.599 769.822 747.483 759.077 750.026 750.276L750.367 749.08C757.148 725.882 772.722 705.457 794.03 693.699H795.078L794.268 692.733C780.32 675.917 769.359 657.275 763.647 636.075H762.599L762.384 637.196C758.029 657.955 746.755 676.404 730.12 689.508L729.309 690.158C725.222 693.428 721.021 696.284 716.5 698.938L714.754 700.018C710.744 702.438 706.758 704.125 702.308 705.578C700.35 706.219 698.486 707.03 696.593 707.843C687.33 710.972 677.591 712.588 667.944 713.999C667.571 714.055 667.198 714.111 666.814 714.169C655.983 715.778 645.126 715.782 634.195 715.784C632.295 715.785 630.394 715.788 628.493 715.792C625.173 715.798 621.853 715.802 618.533 715.804C613.595 715.808 608.658 715.815 603.72 715.823C595.412 715.835 587.104 715.845 578.797 715.854C570.576 715.862 562.356 715.872 554.136 715.883C553.624 715.884 553.112 715.885 552.585 715.885C549.984 715.889 547.384 715.892 544.783 715.896C526.387 715.921 507.99 715.944 489.593 715.965C471.727 715.985 453.86 716.007 435.993 716.03C435.442 716.031 434.891 716.032 434.323 716.032C428.787 716.039 423.252 716.047 417.716 716.054C406.441 716.068 395.166 716.083 383.89 716.098C383.372 716.098 382.853 716.099 382.319 716.099C347.731 716.144 313.143 716.185 278.554 716.225C278.394 716.717 278.234 717.209 278.069 717.715C277.555 719.228 276.958 720.551 276.213 721.961C275.96 722.443 275.707 722.926 275.446 723.423C275.04 724.187 275.04 724.187 274.626 724.967C274.345 725.499 274.065 726.031 273.777 726.58C272.927 728.193 272.074 729.805 271.22 731.417C270.303 733.152 269.386 734.887 268.47 736.623C268.254 737.033 268.038 737.442 267.815 737.864C266.358 740.632 264.948 743.419 263.561 746.222C261.925 749.513 260.231 752.774 258.537 756.036C253.434 765.864 248.431 775.737 243.698 785.75C241.76 789.848 239.735 793.899 237.694 797.947L234.027 805.281L301.08 804.757C304.029 798.863 304.029 798.863 306.97 792.966C307.68 791.537 308.392 790.108 309.104 788.68C309.472 787.942 309.84 787.203 310.207 786.465C312.546 781.758 314.941 777.086 317.398 772.441C319.702 768.08 321.954 763.694 324.201 759.304C324.895 757.947 325.59 756.59 326.286 755.233C326.734 754.358 327.183 753.482 327.631 752.607C327.836 752.207 328.041 751.808 328.251 751.396C328.444 751.02 328.637 750.643 328.836 750.255C329.002 749.929 329.169 749.603 329.341 749.267C330.055 747.86 330.759 746.448 331.464 745.037H414.234C413.254 747.976 412.109 750.706 410.829 753.517C410.597 754.027 410.365 754.536 410.127 755.061C408.429 758.753 406.598 762.353 404.674 765.931C403.05 768.965 401.55 772.044 400.089 775.159C398.494 778.553 396.849 781.904 395.08 785.211C389.695 795.297 384.646 805.577 379.752 815.909C375.391 825.078 370.866 834.193 366.047 843.131C364.438 846.139 362.997 849.219 361.556 852.311C359.968 855.697 358.243 858.998 356.479 862.295C354.623 865.785 352.918 869.337 351.255 872.923C349.847 875.954 349.847 875.954 349.275 876.526C347.97 876.577 346.679 876.595 345.374 876.59C344.959 876.591 344.543 876.592 344.115 876.592C342.705 876.594 341.295 876.591 339.885 876.589C338.871 876.589 337.857 876.589 336.843 876.59C334.043 876.591 331.243 876.589 328.443 876.587C325.429 876.584 322.415 876.585 319.401 876.585C314.173 876.586 308.946 876.584 303.719 876.581C296.162 876.577 288.604 876.575 281.046 876.575C268.786 876.574 256.526 876.57 244.266 876.565C232.353 876.56 220.44 876.557 208.527 876.554C208.16 876.554 207.793 876.554 207.415 876.554C203.729 876.554 200.044 876.553 196.358 876.552C188.85 876.551 181.342 876.549 173.834 876.548C173.144 876.547 172.454 876.548 171.744 876.548C149.024 876.543 126.305 876.534 103.586 876.526C104.005 874.146 104.87 872.207 105.976 870.076C106.361 869.321 106.746 868.565 107.13 867.81C107.424 867.237 107.425 867.237 107.725 866.652C108.594 864.951 109.446 863.24 110.298 861.53C110.646 860.834 110.995 860.137 111.344 859.441C112.183 857.763 113.018 856.083 113.852 854.403C116.318 849.444 118.814 844.506 121.407 839.613C123.347 835.951 125.255 832.273 127.16 828.593C129.469 824.133 131.788 819.678 134.132 815.237C136.117 811.475 138.083 807.702 140.047 803.93C141.794 800.578 143.552 797.233 145.341 793.903C146.589 791.564 147.779 789.196 148.961 786.823C151.27 782.189 153.624 777.577 155.986 772.969C156.688 771.598 157.39 770.226 158.092 768.853C160.793 763.577 163.53 758.319 166.297 753.077C167.937 749.969 169.551 746.849 171.164 743.728C173.308 739.583 175.464 735.444 177.646 731.319C179.92 727.02 182.104 722.68 184.26 718.321L185.308 716.225L104.634 715.701C105.358 713.89 106.076 712.253 106.975 710.54C107.228 710.057 107.481 709.573 107.742 709.075C108.012 708.56 108.283 708.046 108.563 707.516C108.987 706.707 108.987 706.707 109.419 705.883C109.997 704.782 110.575 703.681 111.154 702.581C111.862 701.236 112.567 699.889 113.271 698.543C119.895 685.897 126.683 673.335 133.53 660.809C133.802 660.311 134.074 659.813 134.354 659.301C134.855 658.385 135.356 657.47 135.858 656.555C138.243 652.196 140.549 647.802 142.875 643.409L223.026 642.885L229.312 630.836L231.866 626.023C234.2 621.618 236.413 617.155 238.628 612.689C240.656 608.605 242.748 604.569 244.962 600.584C247.766 595.536 250.342 590.388 252.903 585.214C255.383 580.211 257.948 575.275 260.658 570.391C262.61 566.862 264.42 563.275 266.201 559.656C267.731 556.568 269.374 553.565 271.089 550.577C272.429 548.228 273.665 545.845 274.855 543.418C276.347 540.373 277.938 537.401 279.602 534.447C282.018 530.147 284.24 525.776 286.412 521.35C287.326 519.493 288.243 517.638 289.163 515.784C289.368 515.364 289.575 514.943 289.787 514.51C291.479 511.098 293.297 507.762 295.13 504.425C298.098 499.015 300.935 493.547 303.726 488.044C305.032 485.469 306.344 482.896 307.655 480.323C307.908 479.827 308.161 479.331 308.421 478.82C310.948 473.861 313.515 468.925 316.103 463.998C317.387 461.553 318.662 459.103 319.939 456.654C320.465 455.646 320.991 454.639 321.517 453.631C322.546 451.658 323.573 449.684 324.599 447.709C327.416 442.287 330.271 436.888 333.167 431.508C336.191 425.89 339.137 420.234 342.049 414.557C344.533 409.717 347.087 404.923 349.715 400.159C351.644 396.648 353.452 393.088 355.23 389.498C358.935 382.019 362.923 374.703 366.974 367.406C369.9 362.132 372.71 356.809 375.466 351.445C377.316 347.851 379.212 344.289 381.165 340.75C383.947 335.707 386.584 330.596 389.211 325.471C391.383 321.235 393.59 317.03 395.964 312.903C397.477 310.263 398.819 307.555 400.159 304.825C401.253 302.637 402.457 300.513 403.658 298.383C405.532 295.054 407.301 291.69 408.995 288.266C412.666 280.846 416.558 273.554 420.54 266.296C422.172 263.314 423.78 260.32 425.372 257.316C425.566 256.949 425.76 256.583 425.96 256.206C426.918 254.396 427.875 252.585 428.829 250.773C430.92 246.813 433.076 242.902 435.324 239.029C436.46 237.023 437.481 234.972 438.495 232.903C439.606 230.679 440.769 228.484 441.933 226.287C443.575 223.184 445.188 220.07 446.746 216.923C450.111 210.14 453.732 203.497 457.373 196.859C459.269 193.388 461.105 189.89 462.92 186.376C466.459 179.535 470.249 172.837 474.119 166.179C476.038 162.866 477.839 159.52 479.53 156.087C481.227 152.649 482.989 149.244 484.758 145.842C485.04 145.299 485.322 144.755 485.613 144.195C487.447 140.672 489.326 137.175 491.241 133.695ZM924.472 533.923C918.768 532.803 913.169 532.711 907.379 532.843C899.618 533.046 892 534.363 884.798 537.349L883.087 538.114C875.621 541.425 868.831 545.641 863.195 551.624L862.133 552.782C852.359 562.682 846.53 575.068 843.928 588.634C843.723 589.782 843.508 590.929 843.274 592.071L842.75 592.595C841.084 603.002 842.2 613.971 845.075 624.06C845.175 624.405 845.272 624.74 845.369 625.074C849.927 640.854 858.898 653.116 872.151 662.694C887.485 673.056 905.704 676.873 924.001 673.601L925.519 673.269C937.268 670.725 949.168 665.347 957.73 656.772C971.013 642.518 979.149 624.782 979.07 605.135C979.06 603.964 979.051 602.793 979.05 601.622C979.052 584.525 972.699 567.029 960.788 554.528L959.57 553.306C950.305 543.955 939.613 536.782 926.493 534.275L924.472 533.923ZM426.282 423.389C422.583 430.332 419.014 437.334 415.507 444.376C414.962 445.47 414.417 446.564 413.871 447.659C412.801 449.803 411.731 451.948 410.661 454.094C409.175 457.076 407.687 460.058 406.196 463.038C405.264 464.901 404.333 466.764 403.405 468.628C403.12 469.202 402.842 469.76 402.565 470.317C402.024 471.405 401.482 472.493 400.941 473.581C399.451 476.585 397.956 479.584 396.384 482.545C392.429 489.985 388.663 497.517 384.905 505.057C383.97 506.933 383.034 508.808 382.098 510.684C380.657 513.568 379.217 516.453 377.778 519.338C375.963 522.977 374.147 526.615 372.328 530.252C371.242 532.422 371.241 532.423 368.99 536.924C368.43 538.045 367.869 539.166 367.309 540.287C366.458 541.989 366.458 541.989 363 548.906C362.436 550.034 361.872 551.162 361.308 552.29C360.046 554.813 358.783 557.335 357.525 559.859C355.78 563.365 354.049 566.877 352.186 570.322C350.344 573.715 348.62 577.148 346.983 580.644C343.767 587.516 340.397 594.312 336.849 601.019C332.456 609.301 328.278 617.684 324.261 626.154C322.627 629.606 320.951 633.017 319.121 636.37C317.925 638.52 317.024 640.545 316.272 642.885C346.489 642.903 376.706 642.919 406.923 642.929C407.616 642.929 407.616 642.929 408.295 642.93C418.147 642.933 427.999 642.936 437.851 642.938C442.687 642.94 447.524 642.941 452.361 642.942C452.857 642.943 453.339 642.943 453.82 642.943C469.429 642.947 485.038 642.955 500.647 642.964C516.72 642.974 532.792 642.981 548.865 642.983C551.137 642.984 553.409 642.984 555.682 642.984C556.366 642.984 556.367 642.984 557.038 642.984C564.219 642.985 571.4 642.99 578.581 642.996C585.84 643.002 593.098 643.006 600.357 643.004C604.67 643.003 608.983 643.004 613.296 643.01C616.197 643.014 619.099 643.016 621.999 643.014C623.341 643.013 624.683 643.011 626.025 643.011C639.835 643.046 653.531 642.816 666.209 636.697C675.494 631.875 683.227 624.556 686.758 614.431C690.301 602.138 690.549 587.705 684.35 576.255L683.496 574.784C681.847 571.901 680.151 569.221 677.832 566.827C665.77 555.462 651.235 551.596 634.911 551.569C634.152 551.567 633.394 551.564 632.636 551.559C630.551 551.544 628.467 551.533 626.382 551.526C624.175 551.519 621.968 551.508 619.76 551.494C615.586 551.469 611.411 551.448 607.236 551.431C602.45 551.411 597.664 551.387 592.878 551.36C582.573 551.304 572.267 551.254 561.961 551.21C561.618 552.419 561.382 553.1 561.717 554.332C561.885 554.702 562.046 555.061 562.209 555.42C562.397 555.845 562.58 556.257 562.762 556.67C562.972 557.127 563.176 557.57 563.38 558.014C564.034 559.477 564.689 560.94 565.352 562.4C565.822 563.435 566.29 564.471 566.756 565.509C567.679 567.573 568.603 569.638 569.532 571.701C570.874 574.68 572.209 577.662 573.514 580.658C573.705 581.098 573.89 581.526 574.076 581.954C575.479 585.183 576.86 588.42 578.237 591.66C578.438 592.134 578.634 592.595 578.829 593.055C579.831 595.415 580.833 597.775 581.832 600.136C582.212 601.033 582.591 601.93 582.971 602.827C583.156 603.264 583.336 603.687 583.515 604.111C584.181 605.689 584.855 607.262 585.535 608.834L588.154 614.597L504.337 614.073C502.965 611.099 501.562 608.137 500.292 605.118L499.59 603.334C498.862 601.493 498.144 599.648 497.437 597.799C496.314 594.85 495.163 591.916 493.967 588.997C491.778 583.663 489.595 578.327 487.425 572.986C487.253 572.562 487.086 572.15 486.919 571.739C484.359 565.435 481.836 559.117 479.356 552.782C477.176 547.213 474.945 541.669 472.644 536.149C472.384 535.53 472.133 534.929 471.881 534.328C471.634 533.736 471.394 533.162 471.154 532.588C470.473 530.969 469.815 529.344 469.184 527.705C467.902 524.352 466.594 521.013 465.234 517.692C461.954 509.703 458.733 501.69 455.524 493.673C454.898 492.108 454.272 490.544 453.644 488.981C449.879 479.603 446.145 470.216 442.587 460.756C441.287 457.299 439.978 453.862 438.443 450.499C437.77 449.066 437.15 447.664 436.579 446.185C434.498 440.307 434.498 440.307 427.33 423.389H426.282ZM665.722 427.605C653.29 415.29 653.29 415.29 615.864 415.419C613.712 415.426 611.561 415.429 609.41 415.431C605.338 415.433 601.265 415.44 597.193 415.45C591.604 415.465 586.015 415.472 580.425 415.478C572.297 415.487 572.297 415.487 553.056 415.529V490.965C562.632 490.974 572.209 490.985 581.785 490.99C587.869 490.993 593.953 490.996 600.037 491.003C604.536 491.008 609.035 491.012 613.533 491.014C615.912 491.015 618.292 491.015 620.671 491.018C622.942 491.022 625.214 491.025 627.486 491.025C628.328 491.024 629.17 491.024 630.012 491.024C634.552 491.035 639.198 491.256 643.683 490.441C644.208 489.82 644.208 489.82 645.22 489.71C646.642 489.473 648.041 489.193 649.446 488.869C658.48 486.084 665.879 480.584 670.703 472.419L671.448 471.058C674.123 466.198 675.597 460.616 675.788 455.085C675.925 444.321 673.223 435.633 665.722 427.605ZM493.336 288.233C491.828 291.036 490.321 293.839 488.806 296.638C485.392 302.929 482.021 309.237 478.748 315.603C476.397 320.177 474.041 324.74 471.49 329.207C470.047 331.73 468.628 334.266 467.226 336.813C466.93 337.35 466.644 337.871 466.357 338.393C466.072 338.908 465.794 339.408 465.517 339.908C465.252 340.392 464.994 340.862 464.737 341.331C463.861 342.92 463.402 344.061 462.952 345.858H524.244C523.72 343.762 523.72 343.762 523.225 342.741C523.015 342.368 522.811 342.006 522.607 341.644C522.245 340.995 522.245 340.995 521.891 340.359C518.961 335.135 516.166 329.846 513.427 324.52C513.231 324.139 513.04 323.768 512.85 323.397C511.208 320.209 509.563 317.022 507.96 313.814C507.671 313.232 507.67 313.232 507.387 312.661C507.014 311.913 506.643 311.164 506.271 310.415C505.359 308.565 504.433 306.736 503.404 304.947C501.279 301.437 499.452 297.849 497.658 294.159C497.403 293.623 497.156 293.102 496.908 292.582C496.665 292.081 496.429 291.595 496.193 291.108C495.977 290.655 495.767 290.215 495.557 289.775C494.908 288.757 494.908 288.757 493.336 288.233Z" fill="#040304"/>
<path d="M644.207 744.513C647.145 750.977 647.145 750.977 648.296 753.861C648.557 754.511 648.818 755.161 649.079 755.811C649.213 756.146 649.347 756.481 649.485 756.826C652.899 765.344 656.497 773.778 660.131 782.204C661.51 785.403 662.863 788.613 664.212 791.824C666.679 797.688 669.222 803.518 671.766 809.349C675.202 817.224 678.613 825.105 681.868 833.057C683.906 838.035 686.019 842.98 688.162 847.913C689.642 851.337 691.031 854.781 692.337 858.276C692.872 859.626 693.466 860.899 694.137 862.185C695.492 864.803 696.652 867.495 697.804 870.207C698.089 870.868 698.089 870.868 698.379 871.543C698.555 871.961 698.73 872.378 698.911 872.807C699.15 873.371 699.15 873.371 699.393 873.945C699.736 874.954 699.736 874.954 699.736 876.526C687.76 876.623 675.784 876.697 663.808 876.743C658.247 876.764 652.687 876.794 647.126 876.842C642.28 876.884 637.434 876.911 632.588 876.92C630.022 876.926 627.455 876.938 624.889 876.969C622.474 876.997 620.059 877.006 617.643 877C616.757 877.001 615.87 877.009 614.983 877.025C608.286 877.141 608.286 877.14 606.447 875.631C605.74 874.537 605.311 873.573 604.918 872.335C604.636 871.666 604.352 870.998 604.067 870.331C603.822 869.658 603.582 868.984 603.346 868.308C603.08 867.572 602.813 866.836 602.546 866.1C602.417 865.738 602.287 865.376 602.154 865.003C600.828 861.329 599.399 857.695 597.878 854.098C596.838 851.632 595.889 849.143 594.965 846.633C594.083 844.243 593.166 841.902 592.083 839.594C590.879 837.021 589.872 834.391 588.891 831.728C587.956 829.191 586.992 826.666 586.008 824.148C585.684 823.317 585.36 822.486 585.036 821.655C584.863 821.212 584.69 820.769 584.512 820.312C583.518 817.757 582.529 815.199 581.539 812.642C581.111 811.538 580.684 810.435 580.257 809.332C579.604 807.646 578.951 805.96 578.298 804.274C575.855 797.96 573.398 791.654 570.867 785.374L568.557 779.573C567.884 777.896 567.184 776.23 566.484 774.564C565.073 771.186 563.756 767.775 562.453 764.355C560.922 760.347 559.373 756.351 557.771 752.371L554.627 744.513H644.207Z" fill="#040304"/>
</svg>
