<svg width="1200" height="1200" viewBox="0 0 1200 1200" fill="none" xmlns="http://www.w3.org/2000/svg">
<path d="M408.183 525.655C410.007 530.266 411.962 534.816 413.93 539.367C416.16 544.539 418.359 549.718 420.42 554.959C422.675 560.682 425.092 566.331 427.528 571.979C429.24 575.95 430.938 579.925 432.601 583.916C432.857 584.529 432.857 584.529 433.117 585.154C433.805 586.803 434.492 588.453 435.178 590.102C438.042 596.969 441.024 603.776 444.097 610.551C444.397 611.217 444.698 611.883 445.007 612.569C445.273 613.154 445.539 613.739 445.813 614.341C446.38 615.742 446.38 615.743 446.38 617.009H359.003C359.871 614.84 360.682 613.002 361.811 610.999C362.113 610.456 362.416 609.912 362.728 609.353C363.053 608.771 363.378 608.19 363.713 607.591C366.763 602.071 369.566 596.474 372.247 590.767C374.483 586.029 376.867 581.385 379.318 576.755C381.914 571.85 384.4 566.897 386.863 561.924C390.241 555.106 393.661 548.318 397.231 541.598C399.206 537.87 401.107 534.109 402.946 530.312C403.959 528.245 404.944 526.286 406.491 524.567H407.757C407.898 524.926 408.038 525.285 408.183 525.655Z" fill="#040304"/>
<path fill-rule="evenodd" clip-rule="evenodd" d="M468.541 36.3984C469.69 36.5295 469.69 36.5295 471.073 37.0316C472.034 38.3053 472.034 38.3053 472.948 39.9996C473.294 40.6302 473.64 41.2611 473.997 41.9108C474.364 42.5991 474.731 43.2872 475.11 43.9964C475.905 45.4525 476.701 46.9084 477.496 48.3642C477.906 49.1199 478.316 49.8757 478.725 50.6316C480.585 54.0588 482.499 57.4553 484.409 60.8544C485.15 62.1759 485.89 63.4974 486.63 64.819C495.84 81.2406 505.102 97.6457 514.842 113.76C520.595 123.283 526.125 132.944 531.551 142.656C534.182 147.354 536.891 152.007 539.587 156.667C542.222 161.227 544.827 165.802 547.409 170.392C550.563 175.996 553.786 181.556 557.037 187.104C559.903 192.002 562.702 196.936 565.483 201.882C567.936 206.238 570.443 210.56 572.973 214.871C576.43 220.767 579.794 226.71 583.121 232.68C585.287 236.563 587.476 240.43 589.712 244.274C592.552 249.158 595.375 254.052 598.181 258.955C598.394 259.328 598.608 259.701 598.828 260.086C601.249 264.318 603.65 268.561 606.009 272.828C606.22 273.21 606.431 273.592 606.649 273.986C607.653 275.802 608.654 277.621 609.65 279.442L610.748 281.435C611.213 282.285 611.213 282.285 611.687 283.153C612.288 284.182 612.289 284.182 612.902 285.232C613.179 285.813 613.457 286.395 613.743 286.994C615.64 290.695 615.64 290.694 619.043 292.807C621.161 293.013 623.177 292.996 625.303 292.904C626.084 292.899 626.865 292.895 627.67 292.89C629.347 292.878 631.019 292.854 632.695 292.811C636.633 292.711 640.571 292.722 644.51 292.731C645.389 292.732 646.268 292.733 647.146 292.732C655.093 292.73 662.881 293.255 670.757 294.294C671.525 294.39 671.526 294.39 672.31 294.489C678.857 295.325 685.069 296.719 691.414 298.528C692.532 298.817 693.652 299.101 694.773 299.379L696.247 299.752C697.207 299.995 698.169 300.234 699.131 300.469C702.663 301.373 705.842 302.694 709.143 304.226C710.017 304.6 710.892 304.97 711.769 305.337C724.358 310.684 736.323 317.598 746.353 326.973C747.646 328.176 748.978 329.299 750.338 330.424C753.479 333.174 755.992 336.381 758.529 339.684L760.053 341.635C769.963 354.68 776.327 370.008 778.518 386.209C778.625 387.76 778.625 387.76 779.424 388.437C779.576 390.101 779.688 391.75 779.77 393.418C779.809 394.183 779.809 394.183 779.85 394.963C780.098 400.114 780.196 405.261 780.209 410.417C780.215 411.948 780.235 413.477 780.255 415.008C780.313 423.531 779.152 431.496 776.574 439.644L776.191 440.901C775.932 441.749 775.669 442.596 775.403 443.443C775.111 444.396 774.835 445.355 774.569 446.316C773.513 450.071 772.124 453.424 770.282 456.858C769.871 457.63 769.871 457.63 769.451 458.416C764.766 466.989 759.014 474.537 752.198 481.512L750.904 482.902C744.503 489.633 736.244 494.978 727.895 499.008C726.168 499.704 726.168 499.704 725.605 501.14C726.165 501.283 726.165 501.283 726.737 501.429C731.18 502.651 735.083 504.474 739.139 506.641C739.78 506.981 740.423 507.321 741.084 507.671C745.624 510.103 749.948 512.641 754.097 515.703L756.044 517.108C770.602 527.817 781.162 540.854 789.515 556.779C789.867 557.449 790.219 558.119 790.582 558.809C795.253 567.899 795.253 567.899 795.253 572.688H797.152L797.202 571.542C797.784 562.633 800.318 554.284 803.633 546.046C804.099 544.873 804.542 543.689 804.983 542.506C812.886 521.676 826.28 503.021 841.869 487.29C842.36 486.793 842.851 486.296 843.357 485.784C846.76 482.4 850.356 479.396 854.137 476.447C854.904 475.82 855.67 475.19 856.432 474.557C878.686 456.236 905.593 444.299 933.944 439.318C935.102 439.105 936.254 438.862 937.405 438.618C984.101 428.875 1034.06 438.236 1075.11 461.884L1075.58 460.222C1081.33 444.867 1100.1 433.831 1114.13 427.218C1126.41 421.899 1139.21 419.104 1152.36 416.929L1154.65 416.536C1165.74 414.784 1176.93 414.277 1188.13 414.278C1188.58 414.277 1189.04 414.277 1189.51 414.276C1197.19 414.277 1197.19 414.277 1197.94 415.03C1198.01 416.144 1198.02 417.26 1198.02 418.375C1198.02 419.1 1198.02 419.826 1198.02 420.573C1198.02 421.376 1198.02 422.179 1198.02 423.006C1198.02 423.855 1198.02 424.703 1198.02 425.552C1198.02 427.862 1198.01 430.172 1198.01 432.482C1198 434.894 1198 437.306 1198 439.718C1198 444.288 1198 448.858 1197.99 453.428C1197.98 458.629 1197.98 463.83 1197.98 469.032C1197.97 479.735 1197.96 490.437 1197.94 501.14C1188.19 501.155 1178.43 501.166 1168.67 501.173C1164.14 501.176 1159.61 501.18 1155.08 501.188C1151.13 501.194 1147.18 501.198 1143.23 501.199C1141.14 501.2 1139.04 501.203 1136.95 501.207C1134.62 501.211 1132.28 501.212 1129.95 501.212C1129.26 501.214 1128.56 501.216 1127.85 501.219C1124.76 501.214 1121.83 501.165 1118.8 500.507L1120.07 503.673H1121.33C1122.42 504.901 1123.42 506.132 1124.42 507.432C1124.88 508.026 1124.88 508.026 1125.35 508.632C1142.92 531.569 1154.81 558.211 1157.42 587.25L1157.63 589.456C1158.64 602.164 1158.83 615.125 1156.41 627.671C1156.17 628.971 1155.97 630.27 1155.78 631.579C1153.82 645.038 1149.4 658.326 1144.13 670.828L1143.53 672.232C1138.71 683.45 1132.24 693.754 1124.69 703.332C1123.96 704.258 1123.25 705.193 1122.53 706.129C1119.02 710.646 1115.14 714.814 1111.2 718.948C1110.82 719.352 1110.44 719.756 1110.04 720.172C1103.93 726.592 1097.53 732.182 1090.31 737.31C1089.87 737.623 1089.44 737.936 1088.99 738.258C1077.5 746.461 1064.68 753.555 1051.45 758.521L1047.25 760.104C1046.36 760.462 1046.36 760.463 1045.45 760.828C1040.61 762.747 1035.79 764.261 1030.75 765.525C1030 765.714 1029.26 765.903 1028.49 766.097C1011.17 770.428 994.055 772.512 976.179 772.411C975.45 772.409 974.722 772.407 973.971 772.405C962.527 772.361 951.503 771.804 940.247 769.601C939.479 769.455 938.71 769.31 937.918 769.16C921.903 766.074 906.737 761.266 891.946 754.363C890.079 753.721 889.466 753.598 887.694 754.405C880.526 759.328 874.048 765.688 871.534 774.244C870.02 782.717 871.63 789.323 876.139 796.629C880.447 802.671 885.688 806.538 892.127 810.124L894.024 811.224C904.95 817.158 917.458 820.367 929.543 823.008C931.606 823.47 933.661 823.964 935.716 824.461C948.16 827.46 960.652 829.918 973.264 832.108C979.037 833.112 984.787 834.203 990.53 835.372C1002.15 837.736 1013.8 840.03 1025.49 842.072C1031.59 843.142 1037.64 844.476 1043.69 845.779C1044.28 845.907 1044.88 846.035 1045.49 846.166C1057.63 848.78 1069.62 851.411 1081.42 855.298C1083.13 855.848 1084.86 856.329 1086.59 856.819C1093.48 858.931 1100.12 861.819 1106.77 864.576C1107.31 864.798 1107.84 865.021 1108.4 865.25C1127.06 873.05 1144.75 884.044 1159.32 898.133C1159.63 898.43 1159.95 898.727 1160.27 899.033C1165.34 903.84 1169.73 908.989 1173.88 914.596L1175.1 916.23C1187.91 933.977 1194.48 953.432 1198.58 974.746C1198.77 975.617 1198.77 975.617 1198.96 976.505C1200.1 982.218 1200.01 987.922 1199.97 993.722C1199.96 995.47 1199.96 997.217 1199.96 998.965C1199.94 1009.1 1199.49 1018.83 1197.47 1028.8C1197.38 1029.23 1197.3 1029.65 1197.21 1030.09C1194.69 1042.68 1190.95 1054.09 1185.91 1065.92C1185.58 1066.7 1185.58 1066.71 1185.24 1067.5C1182.18 1074.64 1178.33 1081.09 1173.88 1087.45C1173.58 1087.88 1173.28 1088.31 1172.97 1088.75C1168.3 1095.37 1163.07 1101.29 1157.42 1107.08C1156.99 1107.52 1156.56 1107.97 1156.12 1108.43C1142.61 1122.44 1127 1133.32 1109.26 1141.39C1107.06 1142.39 1104.92 1143.48 1102.77 1144.59C1099.73 1146.14 1096.66 1147.26 1093.4 1148.26C1091.53 1148.84 1091.53 1148.84 1089.65 1149.73C1075.7 1155.83 1059.56 1158.32 1044.6 1160.7C1043.39 1160.89 1043.39 1160.89 1042.16 1161.09C1039.64 1161.47 1037.12 1161.83 1034.59 1162.16C1034.13 1162.22 1033.67 1162.28 1033.2 1162.35C1024.37 1163.47 1015.59 1163.62 1006.69 1163.59C1004.41 1163.59 1002.13 1163.59 999.845 1163.6C990.609 1163.61 981.487 1163.18 972.293 1162.32C970.704 1162.17 969.114 1162.03 967.523 1161.9C930.313 1158.83 892.272 1147.22 859.511 1129.46C857.871 1128.57 856.223 1127.7 854.575 1126.83C846.692 1122.63 839.154 1118.03 831.669 1113.17C829.747 1111.93 827.805 1110.73 825.858 1109.53C822.099 1107.21 818.475 1104.81 814.933 1102.17C812.394 1100.32 809.801 1098.55 807.204 1096.79C799.305 1091.4 791.493 1085.93 783.868 1080.17C775.822 1074.11 767.49 1068.42 759.162 1062.76C758.783 1062.5 758.403 1062.24 758.012 1061.97C722.998 1038.12 682.322 1018.91 638.814 1026.54C637.839 1026.73 636.866 1026.93 635.893 1027.14C635.093 1027.31 635.093 1027.31 634.277 1027.48C632.637 1027.83 631 1028.2 629.364 1028.56C628.608 1028.73 628.608 1028.73 627.837 1028.9C616.337 1031.48 603.934 1035.97 594.184 1042.73C592.641 1043.76 592.641 1043.76 590.741 1043.76C591.541 1041.68 592.428 1039.72 593.499 1037.76C593.786 1037.24 594.073 1036.71 594.369 1036.17C600.989 1024.2 608.494 1013.06 617.334 1002.61L618.83 1000.76C636.6 978.936 660.103 962.58 687.14 954.564C687.723 954.39 688.306 954.217 688.907 954.038C698.692 951.278 708.039 950.356 718.165 950.448C719.022 950.453 719.022 950.452 719.896 950.456C728.273 950.503 736.381 950.857 744.6 952.585C745.755 952.811 746.911 953.036 748.067 953.261C754.655 954.586 761.153 956.223 767.631 958.007L769.603 958.545C773.474 959.641 777.053 961.008 780.69 962.716C781.505 963.067 782.321 963.415 783.139 963.76C796.424 969.446 809.209 976.196 821.212 984.244C821.763 984.61 822.314 984.977 822.881 985.354C830.654 990.54 838.233 995.955 845.726 1001.53C849.512 1004.34 853.346 1007.07 857.168 1009.83C858.55 1010.82 859.927 1011.82 861.304 1012.82C871.399 1020.16 881.52 1027.51 892.184 1034.01C893.929 1035.07 895.645 1036.17 897.353 1037.29C911.879 1046.79 928.147 1055.7 944.949 1060.4C946.406 1060.81 947.784 1061.29 949.19 1061.85C953.727 1063.6 958.471 1064.7 963.244 1065.59C964.708 1065.88 966.157 1066.2 967.612 1066.53C970.584 1067.19 973.566 1067.71 976.575 1068.18L978.059 1068.42C985.859 1069.65 993.553 1069.84 1001.44 1069.84C1003.27 1069.84 1005.1 1069.85 1006.93 1069.86C1017.52 1069.9 1027.56 1069.1 1037.79 1066.26C1039.02 1065.92 1040.26 1065.61 1041.5 1065.31C1057.84 1061.2 1075.03 1052.25 1083.98 1037.43C1089.82 1026.81 1093.85 1016.68 1093.71 1004.39C1093.7 1003.58 1093.7 1002.78 1093.69 1001.95C1093.55 993.12 1092.75 985.125 1088.41 977.279L1087.58 975.716C1075.57 954.276 1050.61 944.925 1028.24 938.575C1019.89 936.288 1011.43 934.597 1002.93 932.957C998.405 932.084 993.968 931.038 989.513 929.853C987.007 929.243 984.487 928.809 981.944 928.379C973.884 927.003 965.903 925.216 957.91 923.498C955.795 923.043 953.68 922.591 951.565 922.139C946.736 921.106 941.908 920.068 937.081 919.028C936.395 918.88 935.708 918.732 935.001 918.579C926.884 916.829 918.777 915.04 910.686 913.171C910.171 913.052 909.657 912.933 909.126 912.81C901.242 910.987 893.373 909.104 885.518 907.156C884.829 906.986 884.829 906.986 884.126 906.813C875.897 904.786 867.725 902.521 859.835 899.4C859.298 899.197 858.761 898.994 858.208 898.784C845.475 893.966 832.883 888.491 821.846 880.405L820.515 879.453C816.829 876.758 813.321 873.83 809.815 870.907L808.245 869.601L806.847 868.414L805.613 867.368C804.75 866.475 804.75 866.475 804.75 865.209H803.484C801.455 862.998 799.647 860.597 797.785 858.244L796.603 856.824C793.267 852.75 790.827 848.278 788.288 843.681C788.074 843.324 787.861 842.967 787.641 842.599C786.041 839.912 784.876 837.216 783.856 834.263C783.695 833.803 783.534 833.343 783.368 832.869C781.682 827.906 780.505 822.845 779.424 817.722C779.312 817.241 779.201 816.76 779.087 816.264C777.18 805.256 778.25 792.269 781.323 781.631L781.734 780.186C789.931 752.148 808.755 727.461 834.509 713.25H835.775L834.796 712.082C817.938 691.757 804.689 669.225 797.785 643.602H796.519L796.259 644.957C790.995 670.048 777.369 692.345 757.263 708.184L756.283 708.969C751.344 712.922 746.265 716.374 740.801 719.581L738.691 720.887C733.845 723.812 729.026 725.851 723.648 727.607C721.282 728.382 719.028 729.362 716.74 730.345C705.545 734.127 693.774 736.079 682.114 737.785C681.663 737.852 681.213 737.92 680.748 737.99C667.657 739.935 654.535 739.94 641.323 739.942C639.026 739.943 636.729 739.948 634.432 739.952C630.419 739.959 626.406 739.964 622.392 739.967C616.425 739.972 610.457 739.98 604.489 739.989C594.448 740.004 584.407 740.016 574.365 740.027C564.43 740.037 554.494 740.049 544.559 740.062C543.94 740.063 543.322 740.064 542.684 740.065C539.541 740.069 536.398 740.073 533.255 740.078C511.02 740.108 488.785 740.135 466.55 740.161C444.955 740.186 423.36 740.212 401.765 740.24C401.099 740.241 400.433 740.242 399.747 740.243C393.056 740.251 386.366 740.26 379.675 740.269C366.047 740.286 352.419 740.304 338.791 740.322C338.165 740.323 337.538 740.323 336.892 740.324C295.087 740.377 253.282 740.427 211.476 740.476C211.283 741.07 211.089 741.665 210.89 742.277C210.268 744.105 209.547 745.704 208.647 747.408C208.341 747.991 208.034 748.575 207.719 749.176C207.228 750.099 207.228 750.099 206.728 751.042C206.389 751.685 206.051 752.328 205.702 752.991C204.675 754.941 203.644 756.89 202.612 758.837C201.503 760.934 200.395 763.032 199.288 765.13C199.027 765.625 198.765 766.12 198.496 766.63C196.736 769.975 195.031 773.344 193.355 776.732C191.377 780.71 189.329 784.651 187.282 788.593C181.115 800.472 175.067 812.405 169.348 824.507C167.004 829.461 164.557 834.356 162.09 839.249L157.658 848.113L238.702 847.48C242.266 840.357 242.267 840.357 245.821 833.229C246.68 831.502 247.54 829.775 248.401 828.049C248.845 827.156 249.29 826.264 249.733 825.371C252.561 819.683 255.455 814.036 258.424 808.421C261.21 803.151 263.932 797.849 266.647 792.543C267.486 790.903 268.327 789.263 269.167 787.623C269.709 786.565 270.251 785.507 270.793 784.448C271.041 783.966 271.288 783.483 271.543 782.985C271.776 782.53 272.009 782.075 272.249 781.606C272.451 781.212 272.652 780.818 272.86 780.412C273.723 778.712 274.573 777.005 275.426 775.3H375.466C374.282 778.852 372.898 782.151 371.35 785.549C371.07 786.165 370.79 786.781 370.502 787.415C368.45 791.877 366.237 796.228 363.912 800.553C361.949 804.22 360.136 807.941 358.37 811.707C356.443 815.809 354.453 819.858 352.316 823.855C345.807 836.046 339.705 848.471 333.789 860.958C328.519 872.042 323.049 883.058 317.225 893.861C315.28 897.497 313.538 901.219 311.797 904.957C309.877 909.049 307.793 913.038 305.66 917.024C303.417 921.242 301.356 925.535 299.346 929.869C297.644 933.533 297.644 933.533 296.953 934.224C295.376 934.286 293.816 934.307 292.238 934.302C291.736 934.302 291.234 934.303 290.716 934.304C289.012 934.306 287.308 934.302 285.603 934.3C284.378 934.3 283.153 934.301 281.928 934.302C278.543 934.303 275.159 934.3 271.775 934.297C268.132 934.294 264.488 934.295 260.845 934.296C254.528 934.296 248.209 934.294 241.892 934.29C232.757 934.285 223.623 934.284 214.488 934.283C199.67 934.282 184.852 934.277 170.033 934.271C155.635 934.265 141.236 934.261 126.837 934.258C126.394 934.258 125.95 934.258 125.493 934.258C121.039 934.257 116.584 934.257 112.13 934.256C103.055 934.254 93.9799 934.252 84.9051 934.25C84.0715 934.25 83.238 934.25 82.3792 934.25C54.9195 934.244 27.4597 934.234 0 934.224C0.505976 931.347 1.55167 929.004 2.88881 926.428C3.35388 925.515 3.81886 924.603 4.28374 923.69C4.63936 922.997 4.63952 922.997 5.00223 922.289C6.05338 920.233 7.08246 918.166 8.1124 916.099C8.53361 915.258 8.95489 914.416 9.37625 913.574C10.3905 911.546 11.4002 909.516 12.4085 907.485C15.3882 901.491 18.4054 895.523 21.5399 889.609C23.8848 885.183 26.1906 880.737 28.4923 876.289C31.2832 870.898 34.0865 865.515 36.9201 860.147C39.3192 855.6 41.6945 851.04 44.0691 846.48C46.1807 842.43 48.3055 838.386 50.4675 834.362C51.976 831.534 53.4138 828.673 54.8428 825.804C57.6339 820.203 60.4786 814.629 63.333 809.06C64.1824 807.402 65.0306 805.744 65.8786 804.085C69.1436 797.707 72.4511 791.353 75.7959 785.017C77.7776 781.261 79.7285 777.489 81.678 773.717C84.2702 768.707 86.8753 763.705 89.5134 758.719C92.2609 753.522 94.9015 748.277 97.5071 743.008L98.7734 740.476L1.26633 739.843C2.14193 737.654 3.00916 735.675 4.09577 733.605C4.40169 733.02 4.70745 732.436 5.02264 731.833C5.35007 731.212 5.67769 730.59 6.01505 729.949C6.52763 728.972 6.52782 728.972 7.05074 727.975C7.74889 726.644 8.44794 725.314 9.14747 723.984C10.0024 722.359 10.8547 720.732 11.7061 719.104C19.7114 703.82 27.9163 688.636 36.1917 673.496C36.5204 672.895 36.8491 672.293 37.1878 671.674C37.7929 670.567 38.399 669.461 39.0057 668.355C41.8883 663.087 44.6761 657.776 47.4872 652.466L144.361 651.833L151.959 637.27L155.046 631.453C157.867 626.129 160.542 620.734 163.219 615.336C165.67 610.401 168.198 605.522 170.875 600.705C174.264 594.604 177.377 588.382 180.473 582.129C183.47 576.082 186.571 570.115 189.846 564.213C192.205 559.947 194.393 555.611 196.546 551.238C198.394 547.505 200.381 543.876 202.453 540.264C204.073 537.425 205.567 534.545 207.005 531.611C208.809 527.931 210.732 524.339 212.743 520.768C215.663 515.572 218.348 510.289 220.974 504.939C222.078 502.694 223.187 500.453 224.298 498.212C224.547 497.703 224.796 497.195 225.052 496.671C227.098 492.548 229.295 488.516 231.51 484.482C235.097 477.944 238.527 471.334 241.9 464.684C243.479 461.571 245.064 458.462 246.649 455.352C246.955 454.752 247.26 454.153 247.575 453.535C250.628 447.542 253.731 441.575 256.86 435.621C258.411 432.665 259.953 429.704 261.496 426.743C262.132 425.526 262.768 424.308 263.403 423.09C264.647 420.706 265.889 418.32 267.128 415.933C270.533 409.38 273.983 402.854 277.484 396.352C281.139 389.561 284.699 382.725 288.219 375.863C291.221 370.013 294.308 364.219 297.485 358.461C299.816 354.218 302.002 349.914 304.15 345.576C308.629 336.535 313.449 327.693 318.346 318.874C321.881 312.5 325.278 306.066 328.609 299.582C330.845 295.238 333.137 290.933 335.497 286.656C338.86 280.561 342.047 274.383 345.222 268.189C347.847 263.07 350.514 257.987 353.383 252.998C355.212 249.808 356.834 246.535 358.454 243.235C359.777 240.591 361.231 238.024 362.684 235.449C364.948 231.426 367.087 227.359 369.134 223.221C373.571 214.252 378.275 205.439 383.088 196.667C385.06 193.062 387.004 189.444 388.928 185.813C389.162 185.37 389.397 184.927 389.638 184.471C390.797 182.284 391.953 180.095 393.106 177.905C395.633 173.118 398.24 168.392 400.957 163.711C402.33 161.286 403.563 158.807 404.789 156.306C406.132 153.618 407.537 150.965 408.944 148.31C410.929 144.559 412.878 140.795 414.761 136.992C418.829 128.794 423.205 120.765 427.606 112.741C429.898 108.546 432.117 104.318 434.31 100.071C438.589 91.8024 443.169 83.7078 447.847 75.6595C450.166 71.6563 452.342 67.6115 454.387 63.4624C456.438 59.3064 458.567 55.1917 460.705 51.0799C461.046 50.423 461.387 49.7663 461.738 49.0895C463.956 44.8312 466.226 40.6046 468.541 36.3984ZM992.167 520.136C985.274 518.782 978.506 518.671 971.508 518.83C962.127 519.075 952.92 520.667 944.215 524.276L942.147 525.201C933.124 529.202 924.917 534.298 918.104 541.53L916.821 542.929C905.008 554.895 897.963 569.866 894.818 586.262C894.569 587.649 894.31 589.036 894.027 590.417L893.394 591.05C891.38 603.629 892.729 616.885 896.204 629.08C896.325 629.497 896.442 629.901 896.559 630.306C902.068 649.378 912.911 664.199 928.93 675.775C947.463 688.299 969.484 692.913 991.598 688.958L993.433 688.557C1007.63 685.482 1022.02 678.982 1032.37 668.617C1048.42 651.39 1058.25 629.952 1058.16 606.206C1058.15 604.791 1058.13 603.375 1058.13 601.96C1058.14 581.295 1050.46 560.15 1036.06 545.039L1034.59 543.563C1023.39 532.26 1010.47 523.591 994.611 520.561L992.167 520.136ZM390.028 386.538C385.558 394.93 381.244 403.392 377.005 411.904C376.347 413.227 375.687 414.549 375.028 415.871C373.734 418.464 372.44 421.056 371.148 423.649C369.351 427.254 367.553 430.858 365.751 434.46C364.624 436.711 363.499 438.963 362.378 441.217C362.033 441.91 361.698 442.584 361.363 443.258C360.708 444.573 360.054 445.888 359.399 447.203C357.599 450.833 355.792 454.458 353.891 458.037C349.111 467.03 344.56 476.133 340.017 485.247C338.887 487.514 337.756 489.781 336.624 492.047C334.884 495.533 333.143 499.02 331.404 502.507C329.21 506.906 327.015 511.303 324.816 515.699C323.503 518.322 323.503 518.322 320.782 523.763C320.105 525.118 319.427 526.473 318.75 527.828C317.722 529.884 317.722 529.885 313.542 538.244C312.86 539.608 312.178 540.972 311.496 542.335C309.971 545.384 308.445 548.432 306.925 551.483C304.816 555.721 302.723 559.965 300.471 564.129C298.246 568.23 296.161 572.38 294.183 576.605C290.296 584.91 286.222 593.125 281.934 601.231C276.625 611.241 271.575 621.373 266.72 631.611C264.745 635.783 262.719 639.906 260.507 643.958C259.062 646.557 257.973 649.005 257.064 651.833C293.586 651.854 330.108 651.874 366.629 651.886C367.467 651.886 367.467 651.886 368.288 651.887C380.196 651.89 392.103 651.894 404.011 651.897C409.856 651.899 415.702 651.9 421.548 651.902C422.148 651.902 422.73 651.903 423.312 651.903C442.178 651.908 461.044 651.917 479.91 651.929C499.336 651.941 518.762 651.949 538.188 651.952C540.934 651.952 543.681 651.952 546.428 651.953C547.255 651.953 547.255 651.953 548.066 651.953C556.746 651.954 565.426 651.96 574.105 651.967C582.878 651.975 591.651 651.979 600.424 651.977C605.637 651.976 610.851 651.976 616.064 651.984C619.57 651.989 623.077 651.991 626.583 651.989C628.205 651.987 629.827 651.986 631.448 651.985C648.14 652.028 664.694 651.75 680.017 644.354C691.239 638.525 700.585 629.68 704.854 617.442C709.136 602.584 709.435 585.14 701.943 571.3L700.911 569.522C698.918 566.037 696.868 562.798 694.065 559.906C679.486 546.169 661.918 541.496 642.188 541.463C641.271 541.461 640.355 541.457 639.438 541.452C636.919 541.433 634.399 541.42 631.88 541.412C629.212 541.403 626.544 541.389 623.876 541.373C618.831 541.343 613.784 541.317 608.739 541.296C602.954 541.272 597.17 541.243 591.385 541.211C578.93 541.143 566.473 541.083 554.018 541.029C553.603 542.491 553.317 543.314 553.723 544.802C553.925 545.25 554.12 545.684 554.316 546.118C554.544 546.631 554.765 547.13 554.985 547.628C555.239 548.181 555.485 548.717 555.732 549.253C556.522 551.022 557.314 552.79 558.115 554.554C558.684 555.805 559.249 557.058 559.812 558.312C560.928 560.807 562.045 563.303 563.168 565.796C564.79 569.396 566.403 573.001 567.981 576.621C568.211 577.154 568.435 577.671 568.659 578.188C570.355 582.091 572.025 586.003 573.689 589.92C573.932 590.493 574.169 591.049 574.405 591.606C575.616 594.458 576.827 597.31 578.035 600.164C578.493 601.248 578.952 602.332 579.411 603.416C579.635 603.944 579.852 604.457 580.069 604.969C580.873 606.876 581.689 608.777 582.51 610.677L585.676 617.642L484.37 617.009C482.711 613.415 481.015 609.835 479.48 606.186L478.632 604.029C477.752 601.804 476.884 599.574 476.03 597.339C474.673 593.775 473.281 590.229 471.836 586.701C469.19 580.254 466.551 573.805 463.929 567.349C463.721 566.836 463.519 566.339 463.317 565.841C460.223 558.222 457.174 550.586 454.176 542.929C451.541 536.198 448.845 529.497 446.063 522.826C445.75 522.078 445.446 521.351 445.141 520.625C444.843 519.91 444.553 519.216 444.263 518.522C443.44 516.565 442.644 514.601 441.882 512.62C440.332 508.568 438.751 504.532 437.108 500.517C433.144 490.861 429.25 481.177 425.371 471.487C424.614 469.596 423.858 467.706 423.099 465.816C418.548 454.481 414.036 443.135 409.735 431.702C408.164 427.523 406.582 423.369 404.727 419.304C403.913 417.572 403.164 415.878 402.474 414.09C399.959 406.986 399.959 406.986 391.295 386.538H390.028ZM679.428 391.633C664.402 376.749 664.402 376.749 619.167 376.905C616.567 376.914 613.967 376.917 611.366 376.919C606.444 376.922 601.522 376.93 596.6 376.943C589.845 376.961 583.089 376.969 576.334 376.976C566.51 376.987 566.51 376.987 543.254 377.038V468.214C554.828 468.225 566.403 468.238 577.978 468.244C585.331 468.248 592.684 468.251 600.038 468.26C605.475 468.266 610.913 468.271 616.35 468.273C619.226 468.274 622.101 468.274 624.977 468.278C627.722 468.283 630.468 468.286 633.214 468.286C634.231 468.286 635.249 468.285 636.267 468.285C641.755 468.299 647.37 468.566 652.791 467.581C653.425 466.83 653.425 466.83 654.648 466.698C656.367 466.411 658.058 466.072 659.756 465.681C670.676 462.314 679.619 455.667 685.448 445.798L686.349 444.154C689.582 438.279 691.363 431.533 691.595 424.847C691.761 411.838 688.495 401.337 679.428 391.633ZM471.073 223.182C469.251 226.569 467.43 229.957 465.597 233.339C461.472 240.944 457.397 248.568 453.442 256.262C450.6 261.79 447.753 267.306 444.669 272.704C442.924 275.754 441.21 278.82 439.515 281.898C439.158 282.547 438.812 283.177 438.465 283.807C438.12 284.43 437.785 285.034 437.449 285.638C437.129 286.223 436.818 286.791 436.507 287.359C435.448 289.279 434.893 290.658 434.35 292.829H508.43C507.797 290.297 507.797 290.297 507.198 289.062C506.944 288.611 506.698 288.174 506.451 287.737C506.014 286.952 506.014 286.952 505.586 286.183C502.045 279.869 498.667 273.477 495.356 267.04C495.119 266.578 494.889 266.13 494.659 265.683C492.675 261.829 490.686 257.977 488.749 254.1C488.399 253.396 488.398 253.396 488.056 252.706C487.606 251.802 487.156 250.897 486.707 249.992C485.605 247.755 484.486 245.544 483.242 243.382C480.674 239.141 478.465 234.804 476.297 230.344C475.989 229.696 475.69 229.067 475.391 228.437C475.097 227.832 474.811 227.244 474.526 226.657C474.265 226.108 474.011 225.576 473.757 225.045C472.973 223.815 472.973 223.815 471.073 223.182Z" fill="#040304"/>
<path d="M653.424 774.667C656.975 782.479 656.975 782.479 658.366 785.965C658.681 786.75 658.997 787.536 659.312 788.322C659.475 788.726 659.636 789.131 659.803 789.548C663.929 799.844 668.278 810.037 672.671 820.221C674.337 824.088 675.973 827.967 677.603 831.849C680.585 838.936 683.659 845.982 686.733 853.03C690.886 862.549 695.009 872.073 698.943 881.685C701.407 887.702 703.96 893.678 706.551 899.641C708.34 903.78 710.018 907.942 711.597 912.166C712.243 913.797 712.961 915.336 713.773 916.891C715.41 920.056 716.812 923.308 718.205 926.586C718.548 927.386 718.548 927.386 718.899 928.202C719.111 928.706 719.324 929.21 719.543 929.73C719.831 930.41 719.831 930.41 720.125 931.105C720.539 932.324 720.539 932.324 720.539 934.224C706.065 934.342 691.59 934.431 677.115 934.486C670.394 934.512 663.673 934.548 656.952 934.606C651.095 934.656 645.238 934.689 639.381 934.7C636.279 934.707 633.177 934.722 630.075 934.759C627.156 934.793 624.237 934.804 621.318 934.797C620.246 934.798 619.174 934.808 618.102 934.828C610.008 934.967 610.008 934.967 607.786 933.142C606.931 931.82 606.412 930.655 605.937 929.158C605.596 928.35 605.254 927.543 604.908 926.737C604.612 925.924 604.322 925.108 604.037 924.291C603.715 923.401 603.393 922.512 603.07 921.622C602.914 921.185 602.757 920.748 602.596 920.297C600.994 915.857 599.266 911.464 597.429 907.116C596.171 904.136 595.024 901.128 593.907 898.094C592.841 895.205 591.733 892.375 590.424 889.586C588.969 886.476 587.751 883.298 586.566 880.079C585.437 877.012 584.271 873.961 583.081 870.917C582.69 869.913 582.298 868.908 581.906 867.904C581.698 867.368 581.489 866.833 581.274 866.281C580.072 863.192 578.876 860.101 577.68 857.01C577.163 855.676 576.647 854.343 576.13 853.009C575.341 850.972 574.552 848.934 573.763 846.897C570.81 839.265 567.841 831.643 564.781 824.053L561.989 817.041C561.175 815.014 560.33 813.001 559.484 810.987C557.779 806.904 556.187 802.782 554.611 798.648C552.762 793.804 550.889 788.974 548.952 784.164L545.153 774.667H653.424Z" fill="#040304"/>
</svg>
